<svg width="438" height="80" viewBox="0 0 438 80" fill="none" xmlns="http://www.w3.org/2000/svg">
<path d="M43.4294 3.36732H52.4294V43.6173L51.5231 51.3673H43.4294V3.36732ZM73.8356 34.1173V34.7736C73.8356 37.2944 73.5648 39.6069 73.0231 41.7111C72.5023 43.8152 71.6898 45.6382 70.5856 47.1798C69.4815 48.7007 68.1065 49.8882 66.4606 50.7423C64.8356 51.5757 62.919 51.9923 60.7106 51.9923C58.6481 51.9923 56.8565 51.5757 55.3356 50.7423C53.8356 49.909 52.5752 48.7319 51.5544 47.2111C50.5335 45.6902 49.7106 43.909 49.0856 41.8673C48.4606 39.8257 47.9919 37.5965 47.6794 35.1798V33.7423C47.9919 31.3257 48.4606 29.0965 49.0856 27.0548C49.7106 25.0132 50.5335 23.2319 51.5544 21.7111C52.5752 20.1902 53.8356 19.0132 55.3356 18.1798C56.8356 17.3465 58.6065 16.9298 60.6481 16.9298C62.8773 16.9298 64.8148 17.3569 66.4606 18.2111C68.1273 19.0444 69.5023 20.2319 70.5856 21.7736C71.6898 23.2944 72.5023 25.1069 73.0231 27.2111C73.5648 29.2944 73.8356 31.5965 73.8356 34.1173ZM64.8356 34.7736V34.1173C64.8356 32.7423 64.7315 31.4507 64.5231 30.2423C64.3356 29.0132 64.0023 27.9402 63.5231 27.0236C63.044 26.0861 62.3877 25.3465 61.5544 24.8048C60.7419 24.2632 59.6898 23.9923 58.3981 23.9923C57.169 23.9923 56.1273 24.2007 55.2731 24.6173C54.419 25.034 53.7106 25.6173 53.1481 26.3673C52.6065 27.1173 52.2002 28.0132 51.9294 29.0548C51.6585 30.0757 51.4919 31.2007 51.4294 32.4298V36.5236C51.4919 38.1694 51.7627 39.6277 52.2419 40.8986C52.7419 42.1486 53.4919 43.1382 54.4919 43.8673C55.5127 44.5757 56.8356 44.9298 58.4606 44.9298C59.7315 44.9298 60.7835 44.6798 61.6169 44.1798C62.4502 43.6798 63.096 42.9715 63.5544 42.0548C64.0335 41.1382 64.3669 40.0652 64.5544 38.8361C64.7419 37.5861 64.8356 36.2319 64.8356 34.7736ZM77.9919 34.8048V34.1486C77.9919 31.6694 78.346 29.3882 79.0544 27.3048C79.7627 25.2007 80.794 23.3777 82.1481 21.8361C83.5023 20.2944 85.169 19.0965 87.1481 18.2423C89.1273 17.3673 91.3981 16.9298 93.9606 16.9298C96.5231 16.9298 98.8044 17.3673 100.804 18.2423C102.804 19.0965 104.481 20.2944 105.836 21.8361C107.211 23.3777 108.252 25.2007 108.961 27.3048C109.669 29.3882 110.023 31.6694 110.023 34.1486V34.8048C110.023 37.2632 109.669 39.5444 108.961 41.6486C108.252 43.7319 107.211 45.5548 105.836 47.1173C104.481 48.659 102.815 49.8569 100.836 50.7111C98.8565 51.5652 96.5856 51.9923 94.0231 51.9923C91.4606 51.9923 89.1794 51.5652 87.1794 50.7111C85.2002 49.8569 83.5231 48.659 82.1481 47.1173C80.794 45.5548 79.7627 43.7319 79.0544 41.6486C78.346 39.5444 77.9919 37.2632 77.9919 34.8048ZM86.9919 34.1486V34.8048C86.9919 36.2215 87.1169 37.5444 87.3669 38.7736C87.6169 40.0027 88.0127 41.0861 88.5544 42.0236C89.1169 42.9402 89.846 43.659 90.7419 44.1798C91.6377 44.7007 92.7315 44.9611 94.0231 44.9611C95.2731 44.9611 96.346 44.7007 97.2419 44.1798C98.1377 43.659 98.8565 42.9402 99.3981 42.0236C99.9398 41.0861 100.336 40.0027 100.586 38.7736C100.856 37.5444 100.992 36.2215 100.992 34.8048V34.1486C100.992 32.7736 100.856 31.4819 100.586 30.2736C100.336 29.0444 99.9294 27.9611 99.3669 27.0236C98.8252 26.0652 98.1065 25.3152 97.2106 24.7736C96.3148 24.2319 95.2315 23.9611 93.9606 23.9611C92.6898 23.9611 91.6065 24.2319 90.7106 24.7736C89.8356 25.3152 89.1169 26.0652 88.5544 27.0236C88.0127 27.9611 87.6169 29.0444 87.3669 30.2736C87.1169 31.4819 86.9919 32.7736 86.9919 34.1486ZM114.117 34.8048V34.1486C114.117 31.6694 114.471 29.3882 115.179 27.3048C115.888 25.2007 116.919 23.3777 118.273 21.8361C119.627 20.2944 121.294 19.0965 123.273 18.2423C125.252 17.3673 127.523 16.9298 130.086 16.9298C132.648 16.9298 134.929 17.3673 136.929 18.2423C138.929 19.0965 140.606 20.2944 141.961 21.8361C143.336 23.3777 144.377 25.2007 145.086 27.3048C145.794 29.3882 146.148 31.6694 146.148 34.1486V34.8048C146.148 37.2632 145.794 39.5444 145.086 41.6486C144.377 43.7319 143.336 45.5548 141.961 47.1173C140.606 48.659 138.94 49.8569 136.961 50.7111C134.981 51.5652 132.711 51.9923 130.148 51.9923C127.586 51.9923 125.304 51.5652 123.304 50.7111C121.325 49.8569 119.648 48.659 118.273 47.1173C116.919 45.5548 115.888 43.7319 115.179 41.6486C114.471 39.5444 114.117 37.2632 114.117 34.8048ZM123.117 34.1486V34.8048C123.117 36.2215 123.242 37.5444 123.492 38.7736C123.742 40.0027 124.138 41.0861 124.679 42.0236C125.242 42.9402 125.971 43.659 126.867 44.1798C127.763 44.7007 128.856 44.9611 130.148 44.9611C131.398 44.9611 132.471 44.7007 133.367 44.1798C134.263 43.659 134.981 42.9402 135.523 42.0236C136.065 41.0861 136.461 40.0027 136.711 38.7736C136.981 37.5444 137.117 36.2215 137.117 34.8048V34.1486C137.117 32.7736 136.981 31.4819 136.711 30.2736C136.461 29.0444 136.054 27.9611 135.492 27.0236C134.95 26.0652 134.231 25.3152 133.336 24.7736C132.44 24.2319 131.356 23.9611 130.086 23.9611C128.815 23.9611 127.731 24.2319 126.836 24.7736C125.961 25.3152 125.242 26.0652 124.679 27.0236C124.138 27.9611 123.742 29.0444 123.492 30.2736C123.242 31.4819 123.117 32.7736 123.117 34.1486ZM160.679 3.33607V51.3673H151.679V3.33607H160.679ZM181.992 17.5548L167.304 34.3048L159.429 42.2736L156.148 35.7736L162.398 27.8361L171.179 17.5548H181.992ZM172.648 51.3673L162.648 35.7423L168.867 30.3048L183.023 51.3673H172.648ZM204.148 42.0236C204.148 41.3777 203.961 40.7944 203.586 40.2736C203.211 39.7527 202.513 39.2736 201.492 38.8361C200.492 38.3777 199.044 37.9611 197.148 37.5861C195.44 37.2111 193.846 36.7423 192.367 36.1798C190.909 35.5965 189.638 34.8986 188.554 34.0861C187.492 33.2736 186.659 32.3152 186.054 31.2111C185.45 30.0861 185.148 28.8048 185.148 27.3673C185.148 25.9507 185.45 24.6173 186.054 23.3673C186.679 22.1173 187.565 21.0132 188.711 20.0548C189.877 19.0757 191.294 18.3152 192.961 17.7736C194.648 17.2111 196.544 16.9298 198.648 16.9298C201.586 16.9298 204.106 17.3986 206.211 18.3361C208.336 19.2736 209.961 20.5652 211.086 22.2111C212.231 23.8361 212.804 25.6902 212.804 27.7736H203.804C203.804 26.8986 203.617 26.1173 203.242 25.4298C202.888 24.7215 202.325 24.1694 201.554 23.7736C200.804 23.3569 199.825 23.1486 198.617 23.1486C197.617 23.1486 196.752 23.3257 196.023 23.6798C195.294 24.0132 194.731 24.4715 194.336 25.0548C193.961 25.6173 193.773 26.2423 193.773 26.9298C193.773 27.4507 193.877 27.9194 194.086 28.3361C194.315 28.7319 194.679 29.0965 195.179 29.4298C195.679 29.7632 196.325 30.0757 197.117 30.3673C197.929 30.6382 198.929 30.8882 200.117 31.1173C202.554 31.6173 204.731 32.2736 206.648 33.0861C208.565 33.8777 210.086 34.9611 211.211 36.3361C212.336 37.6902 212.898 39.4715 212.898 41.6798C212.898 43.1798 212.565 44.5548 211.898 45.8048C211.231 47.0548 210.273 48.1486 209.023 49.0861C207.773 50.0027 206.273 50.7215 204.523 51.2423C202.794 51.7423 200.846 51.9923 198.679 51.9923C195.534 51.9923 192.867 51.4298 190.679 50.3048C188.513 49.1798 186.867 47.7527 185.742 46.0236C184.638 44.2736 184.086 42.4819 184.086 40.6486H192.617C192.659 41.8777 192.971 42.8673 193.554 43.6173C194.159 44.3673 194.919 44.909 195.836 45.2423C196.773 45.5757 197.784 45.7423 198.867 45.7423C200.034 45.7423 201.002 45.5861 201.773 45.2736C202.544 44.9402 203.127 44.5027 203.523 43.9611C203.94 43.3986 204.148 42.7527 204.148 42.0236ZM235.304 17.5548V23.9298H215.617V17.5548H235.304ZM220.492 9.21107H229.492V41.1798C229.492 42.159 229.617 42.909 229.867 43.4298C230.138 43.9507 230.534 44.3152 231.054 44.5236C231.575 44.7111 232.231 44.8048 233.023 44.8048C233.586 44.8048 234.086 44.784 234.523 44.7423C234.981 44.6798 235.367 44.6173 235.679 44.5548L235.711 51.1798C234.94 51.4298 234.106 51.6277 233.211 51.7736C232.315 51.9194 231.325 51.9923 230.242 51.9923C228.263 51.9923 226.534 51.6694 225.054 51.0236C223.596 50.3569 222.471 49.2944 221.679 47.8361C220.888 46.3777 220.492 44.4611 220.492 42.0861V9.21107ZM238.179 34.8048V34.1486C238.179 31.6694 238.534 29.3882 239.242 27.3048C239.95 25.2007 240.981 23.3777 242.336 21.8361C243.69 20.2944 245.356 19.0965 247.336 18.2423C249.315 17.3673 251.586 16.9298 254.148 16.9298C256.711 16.9298 258.992 17.3673 260.992 18.2423C262.992 19.0965 264.669 20.2944 266.023 21.8361C267.398 23.3777 268.44 25.2007 269.148 27.3048C269.856 29.3882 270.211 31.6694 270.211 34.1486V34.8048C270.211 37.2632 269.856 39.5444 269.148 41.6486C268.44 43.7319 267.398 45.5548 266.023 47.1173C264.669 48.659 263.002 49.8569 261.023 50.7111C259.044 51.5652 256.773 51.9923 254.211 51.9923C251.648 51.9923 249.367 51.5652 247.367 50.7111C245.388 49.8569 243.711 48.659 242.336 47.1173C240.981 45.5548 239.95 43.7319 239.242 41.6486C238.534 39.5444 238.179 37.2632 238.179 34.8048ZM247.179 34.1486V34.8048C247.179 36.2215 247.304 37.5444 247.554 38.7736C247.804 40.0027 248.2 41.0861 248.742 42.0236C249.304 42.9402 250.034 43.659 250.929 44.1798C251.825 44.7007 252.919 44.9611 254.211 44.9611C255.461 44.9611 256.534 44.7007 257.429 44.1798C258.325 43.659 259.044 42.9402 259.586 42.0236C260.127 41.0861 260.523 40.0027 260.773 38.7736C261.044 37.5444 261.179 36.2215 261.179 34.8048V34.1486C261.179 32.7736 261.044 31.4819 260.773 30.2736C260.523 29.0444 260.117 27.9611 259.554 27.0236C259.013 26.0652 258.294 25.3152 257.398 24.7736C256.502 24.2319 255.419 23.9611 254.148 23.9611C252.877 23.9611 251.794 24.2319 250.898 24.7736C250.023 25.3152 249.304 26.0652 248.742 27.0236C248.2 27.9611 247.804 29.0444 247.554 30.2736C247.304 31.4819 247.179 32.7736 247.179 34.1486ZM284.742 24.9298V51.3673H275.742V17.5548H284.211L284.742 24.9298ZM294.929 17.3361L294.773 25.6798C294.336 25.6173 293.804 25.5652 293.179 25.5236C292.575 25.4611 292.023 25.4298 291.523 25.4298C290.252 25.4298 289.148 25.5965 288.211 25.9298C287.294 26.2423 286.523 26.7111 285.898 27.3361C285.294 27.9611 284.836 28.7215 284.523 29.6173C284.231 30.5132 284.065 31.534 284.023 32.6798L282.211 32.1173C282.211 29.9298 282.429 27.9194 282.867 26.0861C283.304 24.2319 283.94 22.6173 284.773 21.2423C285.627 19.8673 286.669 18.8048 287.898 18.0548C289.127 17.3048 290.534 16.9298 292.117 16.9298C292.617 16.9298 293.127 16.9715 293.648 17.0548C294.169 17.1173 294.596 17.2111 294.929 17.3361ZM314.117 51.9923C311.492 51.9923 309.138 51.5757 307.054 50.7423C304.971 49.8882 303.2 48.7111 301.742 47.2111C300.304 45.7111 299.2 43.9715 298.429 41.9923C297.659 39.9923 297.273 37.8673 297.273 35.6173V34.3673C297.273 31.8048 297.638 29.4611 298.367 27.3361C299.096 25.2111 300.138 23.3673 301.492 21.8048C302.867 20.2423 304.534 19.0444 306.492 18.2111C308.45 17.3569 310.659 16.9298 313.117 16.9298C315.513 16.9298 317.638 17.3257 319.492 18.1173C321.346 18.909 322.898 20.034 324.148 21.4923C325.419 22.9507 326.377 24.7007 327.023 26.7423C327.669 28.7632 327.992 31.0132 327.992 33.4923V37.2423H301.117V31.2423H319.148V30.5548C319.148 29.3048 318.919 28.1902 318.461 27.2111C318.023 26.2111 317.356 25.4194 316.461 24.8361C315.565 24.2527 314.419 23.9611 313.023 23.9611C311.836 23.9611 310.815 24.2215 309.961 24.7423C309.106 25.2632 308.409 25.9923 307.867 26.9298C307.346 27.8673 306.95 28.9715 306.679 30.2423C306.429 31.4923 306.304 32.8673 306.304 34.3673V35.6173C306.304 36.9715 306.492 38.2215 306.867 39.3673C307.263 40.5132 307.815 41.5027 308.523 42.3361C309.252 43.1694 310.127 43.8152 311.148 44.2736C312.19 44.7319 313.367 44.9611 314.679 44.9611C316.304 44.9611 317.815 44.6486 319.211 44.0236C320.627 43.3777 321.846 42.409 322.867 41.1173L327.242 45.8673C326.534 46.8882 325.565 47.8673 324.336 48.8048C323.127 49.7423 321.669 50.5132 319.961 51.1173C318.252 51.7007 316.304 51.9923 314.117 51.9923Z" fill="#FAFAFA"/>
<path d="M333.273 46.8986C333.273 45.9194 333.409 45.0965 333.679 44.4298C333.971 43.7423 334.367 43.1902 334.867 42.7736C335.367 42.3569 335.95 42.0548 336.617 41.8673C337.284 41.6798 338.002 41.5861 338.773 41.5861C339.502 41.5861 340.19 41.6798 340.836 41.8673C341.502 42.0548 342.086 42.3569 342.586 42.7736C343.086 43.1902 343.481 43.7423 343.773 44.4298C344.065 45.0965 344.211 45.9194 344.211 46.8986C344.211 47.8361 344.065 48.6382 343.773 49.3048C343.481 49.9715 343.086 50.5236 342.586 50.9611C342.086 51.3986 341.502 51.7111 340.836 51.8986C340.19 52.1069 339.502 52.2111 338.773 52.2111C338.002 52.2111 337.284 52.1069 336.617 51.8986C335.95 51.7111 335.367 51.3986 334.867 50.9611C334.367 50.5236 333.971 49.9715 333.679 49.3048C333.409 48.6382 333.273 47.8361 333.273 46.8986ZM362.395 14.0553C362.395 15.378 362.352 16.6793 362.267 17.9593C362.182 19.2393 362.096 20.242 362.011 20.9673H362.395C363.334 19.5166 364.592 18.3007 366.171 17.3193C367.75 16.2953 369.798 15.7833 372.315 15.7833C376.24 15.7833 379.419 17.3193 381.851 20.3913C384.283 23.4206 385.499 27.9006 385.499 33.8313C385.499 37.7993 384.923 41.1487 383.771 43.8793C382.662 46.5673 381.104 48.594 379.099 49.9593C377.094 51.3247 374.747 52.0073 372.059 52.0073C369.499 52.0073 367.472 51.5593 365.979 50.6633C364.528 49.7247 363.334 48.6793 362.395 47.5273H361.755L360.155 51.3673H352.859V2.72731H362.395V14.0553ZM369.243 23.3993C367.579 23.3993 366.256 23.7406 365.275 24.4233C364.294 25.106 363.568 26.1513 363.099 27.5593C362.672 28.9247 362.438 30.6527 362.395 32.7433V33.7673C362.395 37.138 362.886 39.7406 363.867 41.5753C364.891 43.3673 366.726 44.2633 369.371 44.2633C371.334 44.2633 372.891 43.3673 374.043 41.5753C375.195 39.7406 375.771 37.1166 375.771 33.7033C375.771 30.29 375.174 27.73 373.979 26.0233C372.827 24.274 371.248 23.3993 369.243 23.3993ZM407.695 15.7193C412.388 15.7193 415.972 16.7433 418.447 18.7913C420.964 20.7966 422.223 23.89 422.223 28.0713V51.3673H415.567L413.711 46.6313H413.455C412.474 47.8687 411.45 48.8927 410.383 49.7033C409.359 50.514 408.164 51.09 406.799 51.4313C405.476 51.8153 403.834 52.0073 401.871 52.0073C399.823 52.0073 397.967 51.6233 396.303 50.8553C394.682 50.0447 393.402 48.8287 392.463 47.2073C391.524 45.5433 391.055 43.4527 391.055 40.9353C391.055 37.2233 392.356 34.4927 394.959 32.7433C397.562 30.9513 401.466 29.97 406.671 29.7993L412.751 29.6073V28.0713C412.751 26.2366 412.26 24.8926 411.279 24.0393C410.34 23.186 409.018 22.7593 407.311 22.7593C405.604 22.7593 403.94 23.0153 402.319 23.5273C400.698 23.9966 399.076 24.594 397.455 25.3193L394.319 18.8553C396.196 17.874 398.266 17.106 400.527 16.5513C402.831 15.9966 405.22 15.7193 407.695 15.7193ZM409.039 35.3033C405.967 35.3886 403.834 35.9433 402.639 36.9673C401.444 37.9913 400.847 39.3353 400.847 40.9993C400.847 42.45 401.274 43.4953 402.127 44.1353C402.98 44.7327 404.09 45.0313 405.455 45.0313C407.503 45.0313 409.231 44.434 410.639 43.2393C412.047 42.002 412.751 40.274 412.751 38.0553V35.1753L409.039 35.3033Z" fill="#939393"/>
<rect x="20" y="3" width="14" height="48" fill="#D62D00"/>
<rect x="14" y="3" width="8" height="48" fill="#D62D00" fill-opacity="0.31"/>
<path d="M228.641 74L231.055 59.4545H233.626L232.732 64.8949H232.845C233.016 64.6297 233.245 64.348 233.534 64.0497C233.828 63.7467 234.199 63.4886 234.649 63.2756C235.099 63.0578 235.644 62.9489 236.283 62.9489C237.126 62.9489 237.85 63.1643 238.456 63.5952C239.062 64.0213 239.495 64.6534 239.756 65.4915C240.016 66.3248 240.047 67.3475 239.848 68.5597C239.649 69.7576 239.285 70.7756 238.754 71.6136C238.224 72.4517 237.582 73.0909 236.83 73.5312C236.077 73.9716 235.272 74.1918 234.415 74.1918C233.79 74.1918 233.288 74.0876 232.909 73.8793C232.535 73.6709 232.249 73.42 232.05 73.1264C231.851 72.8281 231.706 72.5464 231.617 72.2812H231.453L231.169 74H228.641ZM232.071 68.5455C231.957 69.2509 231.955 69.8688 232.064 70.3991C232.178 70.9295 232.4 71.3437 232.732 71.642C233.068 71.9356 233.51 72.0824 234.06 72.0824C234.623 72.0824 235.12 71.9309 235.551 71.6278C235.987 71.3201 236.347 70.901 236.631 70.3707C236.915 69.8357 237.114 69.2273 237.227 68.5455C237.336 67.8684 237.336 67.267 237.227 66.7415C237.123 66.2159 236.903 65.804 236.567 65.5057C236.235 65.2074 235.786 65.0582 235.217 65.0582C234.663 65.0582 234.171 65.2027 233.74 65.4915C233.309 65.7803 232.952 66.1851 232.668 66.706C232.384 67.2268 232.185 67.84 232.071 68.5455ZM241.684 78.0909C241.334 78.0909 241.014 78.0625 240.725 78.0057C240.441 77.9536 240.216 77.892 240.05 77.821L240.988 75.8182C241.343 75.9271 241.663 75.9744 241.947 75.9602C242.236 75.9508 242.501 75.8537 242.742 75.669C242.988 75.4891 243.23 75.1932 243.467 74.7812L243.793 74.1918L241.705 63.0909H244.333L245.47 71.3438H245.583L249.482 63.0909H252.316L245.931 75.3068C245.623 75.8987 245.266 76.4006 244.859 76.8125C244.452 77.2292 243.985 77.5464 243.46 77.7642C242.939 77.982 242.347 78.0909 241.684 78.0909ZM266.989 63.5241C267.008 62.866 266.807 62.3617 266.386 62.0114C265.969 61.661 265.37 61.4858 264.589 61.4858C264.04 61.4858 263.554 61.5687 263.133 61.7344C262.716 61.8954 262.38 62.1203 262.124 62.4091C261.869 62.6932 261.71 63.0175 261.648 63.3821C261.596 63.6804 261.622 63.9408 261.727 64.1634C261.831 64.3859 261.989 64.5753 262.202 64.7315C262.42 64.8878 262.666 65.018 262.941 65.1222C263.22 65.2263 263.505 65.3139 263.793 65.3849L265.1 65.7259C265.621 65.8537 266.118 66.0265 266.592 66.2443C267.065 66.4574 267.475 66.732 267.82 67.0682C268.171 67.3996 268.426 67.7997 268.587 68.2685C268.748 68.7372 268.774 69.2865 268.666 69.9162C268.523 70.7685 268.18 71.5189 267.636 72.1676C267.096 72.8116 266.386 73.3158 265.505 73.6804C264.629 74.0402 263.609 74.2202 262.444 74.2202C261.317 74.2202 260.365 74.045 259.589 73.6946C258.812 73.3395 258.244 72.8258 257.884 72.1534C257.529 71.4811 257.416 70.6643 257.543 69.7031H260.136C260.084 70.2098 260.166 70.6312 260.384 70.9673C260.607 71.3035 260.926 71.5545 261.343 71.7202C261.76 71.8859 262.243 71.9688 262.792 71.9688C263.365 71.9688 263.883 71.8835 264.347 71.7131C264.811 71.5379 265.19 71.2964 265.484 70.9886C265.782 70.6761 265.964 70.3116 266.031 69.8949C266.097 69.5208 266.042 69.2083 265.867 68.9574C265.692 68.7064 265.42 68.4981 265.05 68.3324C264.686 68.1619 264.25 68.0104 263.744 67.8778L262.167 67.4517C261.026 67.1392 260.159 66.6705 259.568 66.0455C258.98 65.4205 258.772 64.5871 258.943 63.5455C259.085 62.6837 259.442 61.9332 260.015 61.294C260.588 60.6501 261.305 60.1506 262.167 59.7955C263.029 59.4356 263.971 59.2557 264.994 59.2557C266.026 59.2557 266.899 59.4356 267.614 59.7955C268.334 60.1553 268.86 60.6572 269.191 61.3011C269.527 61.9403 269.639 62.6813 269.525 63.5241H266.989ZM281.789 63.0909L276.086 74H273.245L271.178 63.0909H273.82L274.985 71.1946H275.098L278.955 63.0909H281.789ZM283.568 63.0909H286.139L284.221 74.625C284.089 75.411 283.828 76.0597 283.44 76.571C283.057 77.0824 282.559 77.4635 281.949 77.7145C281.342 77.9654 280.637 78.0909 279.832 78.0909C279.752 78.0909 279.671 78.0885 279.591 78.0838C279.505 78.0838 279.418 78.0814 279.328 78.0767L279.676 75.9815C279.742 75.9863 279.804 75.9886 279.86 75.9886C279.917 75.9934 279.979 75.9957 280.045 75.9957C280.538 75.9957 280.912 75.875 281.167 75.6335C281.418 75.3968 281.584 75.0488 281.664 74.5895L283.568 63.0909ZM285.194 61.5426C284.787 61.5426 284.446 61.4053 284.172 61.1307C283.902 60.8561 283.783 60.5294 283.816 60.1506C283.85 59.7623 284.022 59.4332 284.335 59.1634C284.652 58.8887 285.017 58.7514 285.429 58.7514C285.836 58.7514 286.172 58.8887 286.437 59.1634C286.707 59.4332 286.825 59.7623 286.792 60.1506C286.764 60.5294 286.591 60.8561 286.274 61.1307C285.961 61.4053 285.601 61.5426 285.194 61.5426ZM291.766 74.2131C290.672 74.2131 289.768 73.9858 289.053 73.5312C288.338 73.072 287.836 72.4233 287.547 71.5852C287.263 70.7424 287.215 69.7505 287.405 68.6094C287.59 67.4872 287.966 66.5024 288.534 65.6548C289.102 64.8026 289.813 64.1397 290.665 63.6662C291.522 63.188 292.469 62.9489 293.506 62.9489C294.178 62.9489 294.796 63.0578 295.359 63.2756C295.923 63.4886 296.399 63.8201 296.787 64.2699C297.175 64.7197 297.443 65.2926 297.59 65.9886C297.736 66.6799 297.729 67.5038 297.568 68.4602L297.447 69.2486H288.499L288.776 67.5156H295.253C295.338 67.0232 295.31 66.5852 295.168 66.2017C295.026 65.8134 294.789 65.508 294.457 65.2855C294.126 65.063 293.712 64.9517 293.215 64.9517C292.708 64.9517 292.234 65.0819 291.794 65.3423C291.358 65.598 290.992 65.9295 290.693 66.3366C290.395 66.7438 290.206 67.1723 290.125 67.6222L289.834 69.2841C289.73 69.9659 289.753 70.5223 289.905 70.9531C290.056 71.384 290.322 71.7012 290.7 71.9048C291.079 72.1084 291.557 72.2102 292.135 72.2102C292.514 72.2102 292.864 72.1581 293.186 72.054C293.508 71.9498 293.795 71.7936 294.045 71.5852C294.301 71.3722 294.514 71.1117 294.685 70.804L297.036 71.0739C296.775 71.7083 296.394 72.2623 295.892 72.7358C295.39 73.2045 294.789 73.5691 294.088 73.8295C293.392 74.0852 292.618 74.2131 291.766 74.2131ZM306.105 63.0909L305.771 65.0795H299.507L299.834 63.0909H306.105ZM301.808 60.4773H304.379L302.675 70.7188C302.623 71.0644 302.632 71.3295 302.703 71.5142C302.779 71.6941 302.9 71.8172 303.065 71.8835C303.236 71.9498 303.428 71.983 303.641 71.983C303.797 71.983 303.944 71.9711 304.081 71.9474C304.218 71.919 304.327 71.8977 304.408 71.8835L304.521 73.8935C304.365 73.9408 304.154 73.9929 303.889 74.0497C303.629 74.1065 303.316 74.1397 302.952 74.1491C302.298 74.1634 301.73 74.0639 301.247 73.8509C300.769 73.633 300.419 73.2992 300.196 72.8494C299.978 72.3949 299.929 71.8267 300.047 71.1449L301.808 60.4773ZM311.657 59.4545L309.243 74H306.672L309.086 59.4545H311.657ZM316.673 74.2131C315.599 74.2131 314.704 73.9763 313.989 73.5028C313.278 73.0294 312.779 72.3641 312.49 71.5071C312.201 70.6501 312.149 69.6558 312.334 68.5241C312.519 67.4067 312.888 66.429 313.442 65.5909C314.001 64.7528 314.704 64.1042 315.551 63.6449C316.403 63.1809 317.358 62.9489 318.413 62.9489C319.488 62.9489 320.381 63.188 321.091 63.6662C321.801 64.1397 322.301 64.8049 322.59 65.6619C322.883 66.5189 322.938 67.518 322.753 68.6591C322.573 69.7718 322.201 70.7448 321.638 71.5781C321.079 72.4115 320.376 73.0601 319.528 73.5241C318.681 73.9834 317.729 74.2131 316.673 74.2131ZM316.886 72.1534C317.483 72.1534 318.006 71.9924 318.456 71.6705C318.911 71.3437 319.282 70.9058 319.571 70.3565C319.865 69.8026 320.068 69.187 320.182 68.5099C320.286 67.8565 320.288 67.2647 320.189 66.7344C320.09 66.1993 319.876 65.7756 319.55 65.4631C319.228 65.1458 318.78 64.9872 318.207 64.9872C317.611 64.9872 317.083 65.1529 316.624 65.4844C316.169 65.8111 315.797 66.2514 315.509 66.8054C315.22 67.3546 315.021 67.9678 314.912 68.6449C314.803 69.2983 314.798 69.8902 314.898 70.4205C314.997 70.9508 315.21 71.3722 315.537 71.6847C315.864 71.9972 316.313 72.1534 316.886 72.1534ZM334.005 65.9744L331.64 66.2301C331.616 65.9886 331.543 65.7637 331.419 65.5554C331.296 65.3471 331.112 65.1813 330.865 65.0582C330.624 64.9304 330.311 64.8665 329.928 64.8665C329.369 64.8665 328.879 64.992 328.458 65.2429C328.036 65.4938 327.797 65.8158 327.74 66.2088C327.688 66.5024 327.759 66.7415 327.954 66.9261C328.148 67.1108 328.507 67.267 329.033 67.3949L330.837 67.7926C331.831 68.0152 332.546 68.375 332.982 68.8722C333.422 69.3693 333.576 70.0204 333.444 70.8253C333.33 71.4976 333.036 72.0895 332.563 72.6009C332.089 73.1075 331.483 73.5028 330.745 73.7869C330.011 74.071 329.196 74.2131 328.302 74.2131C326.943 74.2131 325.896 73.9313 325.162 73.3679C324.433 72.7997 324.071 72.0185 324.076 71.0241L326.604 70.7827C326.632 71.2751 326.805 71.6468 327.123 71.8977C327.44 72.1439 327.88 72.2694 328.444 72.2741C329.078 72.2789 329.613 72.1463 330.049 71.8764C330.489 71.6018 330.738 71.268 330.794 70.875C330.842 70.5814 330.768 70.3423 330.574 70.1577C330.385 69.973 330.046 69.8262 329.559 69.7173L327.769 69.3267C326.756 69.1042 326.034 68.7277 325.603 68.1974C325.177 67.6624 325.032 66.9877 325.169 66.1733C325.283 65.5104 325.56 64.9399 326 64.4616C326.445 63.9787 327.016 63.607 327.712 63.3466C328.408 63.0814 329.187 62.9489 330.049 62.9489C331.346 62.9489 332.324 63.2211 332.982 63.7656C333.64 64.3101 333.981 65.0464 334.005 65.9744ZM342.297 63.0909L341.963 65.0795H335.699L336.025 63.0909H342.297ZM338 60.4773H340.571L338.866 70.7188C338.814 71.0644 338.824 71.3295 338.895 71.5142C338.97 71.6941 339.091 71.8172 339.257 71.8835C339.427 71.9498 339.619 71.983 339.832 71.983C339.988 71.983 340.135 71.9711 340.272 71.9474C340.41 71.919 340.519 71.8977 340.599 71.8835L340.713 73.8935C340.557 73.9408 340.346 73.9929 340.081 74.0497C339.82 74.1065 339.508 74.1397 339.143 74.1491C338.49 74.1634 337.922 74.0639 337.439 73.8509C336.96 73.633 336.61 73.2992 336.387 72.8494C336.17 72.3949 336.12 71.8267 336.238 71.1449L338 60.4773ZM345.768 70.5767L346.272 67.473H346.684L351.35 63.0909H354.354L348.644 68.4602H348.119L345.768 70.5767ZM342.863 74L345.278 59.4545H347.849L345.434 74H342.863ZM349.71 74L346.982 69.0355L349.021 67.2244L352.785 74H349.71ZM358.587 74.2131C357.513 74.2131 356.618 73.9763 355.903 73.5028C355.193 73.0294 354.693 72.3641 354.404 71.5071C354.115 70.6501 354.063 69.6558 354.248 68.5241C354.433 67.4067 354.802 66.429 355.356 65.5909C355.915 64.7528 356.618 64.1042 357.465 63.6449C358.318 63.1809 359.272 62.9489 360.327 62.9489C361.402 62.9489 362.295 63.188 363.005 63.6662C363.715 64.1397 364.215 64.8049 364.504 65.6619C364.797 66.5189 364.852 67.518 364.667 68.6591C364.487 69.7718 364.115 70.7448 363.552 71.5781C362.993 72.4115 362.29 73.0601 361.443 73.5241C360.595 73.9834 359.643 74.2131 358.587 74.2131ZM358.8 72.1534C359.397 72.1534 359.92 71.9924 360.37 71.6705C360.825 71.3437 361.196 70.9058 361.485 70.3565C361.779 69.8026 361.982 69.187 362.096 68.5099C362.2 67.8565 362.202 67.2647 362.103 66.7344C362.004 66.1993 361.791 65.7756 361.464 65.4631C361.142 65.1458 360.694 64.9872 360.121 64.9872C359.525 64.9872 358.997 65.1529 358.538 65.4844C358.083 65.8111 357.711 66.2514 357.423 66.8054C357.134 67.3546 356.935 67.9678 356.826 68.6449C356.717 69.2983 356.712 69.8902 356.812 70.4205C356.911 70.9508 357.124 71.3722 357.451 71.6847C357.778 71.9972 358.228 72.1534 358.8 72.1534ZM365.976 74L367.794 63.0909H370.258L369.946 64.9446H370.081C370.412 64.3196 370.869 63.8319 371.451 63.4815C372.034 63.1264 372.69 62.9489 373.419 62.9489C374.153 62.9489 374.744 63.1288 375.194 63.4886C375.649 63.8437 375.928 64.3291 376.032 64.9446H376.146C376.487 64.3338 376.975 63.8485 377.609 63.4886C378.248 63.1288 378.966 62.9489 379.761 62.9489C380.755 62.9489 381.518 63.2661 382.048 63.9006C382.578 64.535 382.742 65.4607 382.538 66.6776L381.316 74H378.745L379.91 67.0753C380.014 66.3982 379.91 65.9034 379.598 65.5909C379.29 65.2737 378.876 65.1151 378.355 65.1151C377.735 65.1151 377.218 65.3068 376.807 65.6903C376.399 66.0739 376.148 66.5758 376.054 67.196L374.91 74H372.389L373.568 66.9688C373.653 66.4053 373.554 65.9555 373.27 65.6193C372.99 65.2831 372.578 65.1151 372.034 65.1151C371.664 65.1151 371.312 65.2098 370.976 65.3991C370.639 65.5885 370.353 65.8537 370.116 66.1946C369.884 66.5308 369.733 66.9214 369.662 67.3665L368.554 74H365.976ZM388.719 74.2131C387.625 74.2131 386.721 73.9858 386.006 73.5312C385.291 73.072 384.789 72.4233 384.5 71.5852C384.216 70.7424 384.169 69.7505 384.358 68.6094C384.543 67.4872 384.919 66.5024 385.487 65.6548C386.055 64.8026 386.766 64.1397 387.618 63.6662C388.475 63.188 389.422 62.9489 390.459 62.9489C391.131 62.9489 391.749 63.0578 392.313 63.2756C392.876 63.4886 393.352 63.8201 393.74 64.2699C394.128 64.7197 394.396 65.2926 394.543 65.9886C394.689 66.6799 394.682 67.5038 394.521 68.4602L394.401 69.2486H385.452L385.729 67.5156H392.206C392.291 67.0232 392.263 66.5852 392.121 66.2017C391.979 65.8134 391.742 65.508 391.411 65.2855C391.079 65.063 390.665 64.9517 390.168 64.9517C389.661 64.9517 389.188 65.0819 388.747 65.3423C388.312 65.598 387.945 65.9295 387.646 66.3366C387.348 66.7438 387.159 67.1723 387.078 67.6222L386.787 69.2841C386.683 69.9659 386.706 70.5223 386.858 70.9531C387.01 71.384 387.275 71.7012 387.653 71.9048C388.032 72.1084 388.51 72.2102 389.088 72.2102C389.467 72.2102 389.817 72.1581 390.139 72.054C390.461 71.9498 390.748 71.7936 390.999 71.5852C391.254 71.3722 391.467 71.1117 391.638 70.804L393.989 71.0739C393.728 71.7083 393.347 72.2623 392.845 72.7358C392.343 73.2045 391.742 73.5691 391.041 73.8295C390.345 74.0852 389.571 74.2131 388.719 74.2131ZM395.793 74L397.611 63.0909H400.104L399.798 64.9091H399.912C400.21 64.2794 400.632 63.794 401.176 63.4531C401.725 63.1075 402.313 62.9347 402.938 62.9347C403.084 62.9347 403.243 62.9418 403.413 62.956C403.584 62.9654 403.731 62.982 403.854 63.0057L403.456 65.3707C403.347 65.3329 403.177 65.2997 402.945 65.2713C402.717 65.2382 402.492 65.2216 402.27 65.2216C401.801 65.2216 401.366 65.3234 400.963 65.527C400.565 65.7259 400.229 66.0028 399.955 66.358C399.68 66.7131 399.502 67.1226 399.422 67.5866L398.364 74H395.793ZM408.023 74.2131C406.934 74.2131 406.039 73.974 405.338 73.4957C404.637 73.0175 404.147 72.357 403.868 71.5142C403.593 70.6667 403.548 69.6913 403.733 68.5881C403.913 67.4801 404.285 66.5024 404.848 65.6548C405.416 64.8026 406.131 64.1397 406.993 63.6662C407.855 63.188 408.818 62.9489 409.884 62.9489C410.769 62.9489 411.524 63.1122 412.149 63.4389C412.779 63.7609 413.248 64.2178 413.555 64.8097C413.868 65.3968 413.989 66.0833 413.918 66.8693H411.453C411.444 66.3437 411.28 65.9058 410.963 65.5554C410.646 65.2003 410.182 65.0227 409.571 65.0227C409.041 65.0227 408.553 65.1648 408.108 65.4489C407.663 65.7282 407.287 66.1307 406.979 66.6562C406.671 67.1818 406.458 67.8116 406.34 68.5455C406.216 69.2888 406.219 69.928 406.347 70.4631C406.479 70.9934 406.718 71.4029 407.064 71.6918C407.414 71.9759 407.857 72.1179 408.392 72.1179C408.771 72.1179 409.124 72.0469 409.45 71.9048C409.777 71.758 410.064 71.5473 410.31 71.2727C410.561 70.9981 410.757 70.6643 410.899 70.2713H413.357C413.162 71.0431 412.817 71.7273 412.32 72.3239C411.827 72.9157 411.216 73.3797 410.487 73.7159C409.758 74.0473 408.937 74.2131 408.023 74.2131Z" fill="#939393"/>
</svg>
